<?xml version="1.0" encoding="UTF-8"?>
<svg width="128" height="128" viewBox="0 0 24 24" fill="none" xmlns="http://www.w3.org/2000/svg">
    <!-- Background -->
    <rect x="5.33" y="5.33" width="117.33" height="117.33" rx="32" fill="#0F172A"/>
    
    <!-- Text lines -->
    <line x1="80" y1="37.33" x2="106.67" y2="37.33" stroke="#38BDF8" stroke-width="8.53" stroke-linecap="round"/>
    <line x1="80" y1="58.67" x2="106.67" y2="58.67" stroke="#38BDF8" stroke-width="8.53" stroke-linecap="round"/>
    <line x1="80" y1="80" x2="106.67" y2="80" stroke="#38BDF8" stroke-width="8.53" stroke-linecap="round"/>
  
    <!-- Microphone -->
    <rect x="36" y="26.67" width="24" height="40" rx="12" stroke="white" stroke-width="8.53"/>
    <path d="M48 72v6.4c0 7.95 6.45 14.4 14.4 14.4h0" stroke="white" stroke-width="8.53" stroke-linecap="round"/>
    <path d="M29.33 57.33v2.67a18.67 18.67 0 0 0 18.67 18.67h0a18.67 18.67 0 0 0 18.67-18.67v-2.67" stroke="white" stroke-width="8.53" stroke-linecap="round"/>
    <line x1="48" y1="96" x2="48" y2="104" stroke="white" stroke-width="8.53" stroke-linecap="round"/>
    <line x1="37.33" y1="106.67" x2="58.67" y2="106.67" stroke="white" stroke-width="8.53" stroke-linecap="round"/>
</svg>