<?xml version="1.0" encoding="UTF-8"?>
<svg width="16" height="16" viewBox="0 0 24 24" fill="none" xmlns="http://www.w3.org/2000/svg">
    <!-- Background -->
    <rect x="0.67" y="0.67" width="14.67" height="14.67" rx="4" fill="#0F172A"/>
    
    <!-- Text lines -->
    <line x1="10" y1="4.67" x2="13.33" y2="4.67" stroke="#38BDF8" stroke-width="1.07" stroke-linecap="round"/>
    <line x1="10" y1="7.33" x2="13.33" y2="7.33" stroke="#38BDF8" stroke-width="1.07" stroke-linecap="round"/>
    <line x1="10" y1="10" x2="13.33" y2="10" stroke="#38BDF8" stroke-width="1.07" stroke-linecap="round"/>
  
    <!-- Microphone -->
    <rect x="4.5" y="3.33" width="3" height="5" rx="1.5" stroke="white" stroke-width="1.07"/>
    <path d="M6 9v0.8c0 0.99 0.81 1.8 1.8 1.8h0" stroke="white" stroke-width="1.07" stroke-linecap="round"/>
    <path d="M3.67 7.17v.33a2.33 2.33 0 0 0 2.33 2.33h0a2.33 2.33 0 0 0 2.33-2.33v-.33" stroke="white" stroke-width="1.07" stroke-linecap="round"/>
    <line x1="6" y1="12" x2="6" y2="13" stroke="white" stroke-width="1.07" stroke-linecap="round"/>
    <line x1="4.67" y1="13.33" x2="7.33" y2="13.33" stroke="white" stroke-width="1.07" stroke-linecap="round"/>
</svg>