<?xml version="1.0" encoding="UTF-8"?>
<svg width="48" height="48" viewBox="0 0 24 24" fill="none" xmlns="http://www.w3.org/2000/svg">
    <!-- Background -->
    <rect x="2" y="2" width="44" height="44" rx="12" fill="#0F172A"/>
    
    <!-- Text lines -->
    <line x1="30" y1="14" x2="40" y2="14" stroke="#38BDF8" stroke-width="3.2" stroke-linecap="round"/>
    <line x1="30" y1="22" x2="40" y2="22" stroke="#38BDF8" stroke-width="3.2" stroke-linecap="round"/>
    <line x1="30" y1="30" x2="40" y2="30" stroke="#38BDF8" stroke-width="3.2" stroke-linecap="round"/>
  
    <!-- Microphone -->
    <rect x="13.5" y="10" width="9" height="15" rx="4.5" stroke="white" stroke-width="3.2"/>
    <path d="M18 27v2.4c0 2.98 2.42 5.4 5.4 5.4h0" stroke="white" stroke-width="3.2" stroke-linecap="round"/>
    <path d="M11 21.5v1a7 7 0 0 0 7 7h0a7 7 0 0 0 7-7v-1" stroke="white" stroke-width="3.2" stroke-linecap="round"/>
    <line x1="18" y1="36" x2="18" y2="39" stroke="white" stroke-width="3.2" stroke-linecap="round"/>
    <line x1="14" y1="40" x2="22" y2="40" stroke="white" stroke-width="3.2" stroke-linecap="round"/>
</svg>